<svg xmlns="http://www.w3.org/2000/svg" width="11.426" height="6.713" viewBox="0 0 11.426 6.713">
  <g id="Group_11912" data-name="Group 11912" transform="translate(1 1)">
    <path id="Line_9" data-name="Line 9" d="M4.713,5.713a1,1,0,0,1-.707-.293L-.707.707a1,1,0,0,1,0-1.414,1,1,0,0,1,1.414,0L5.42,4.006a1,1,0,0,1-.707,1.707Z" transform="translate(0)" fill="#d6d6d6"/>
    <path id="Line_10" data-name="Line 10" d="M0,5.713A1,1,0,0,1-.707,5.42a1,1,0,0,1,0-1.414L4.006-.707a1,1,0,0,1,1.414,0,1,1,0,0,1,0,1.414L.707,5.42A1,1,0,0,1,0,5.713Z" transform="translate(4.713)" fill="#d6d6d6"/>
  </g>
</svg>
