<svg xmlns="http://www.w3.org/2000/svg" width="202.288" height="12.288" viewBox="0 0 202.288 12.288">
  <g id="Group_11925" data-name="Group 11925" transform="translate(-1198.176 884.849)">
    <g id="Group_11923" data-name="Group 11923" transform="translate(1292.158 -881.849)">
      <path id="Path_978" data-name="Path 978" d="M1721.566-858.076h3.169c1.615,0,2.578.933,2.578,2.187a2.3,2.3,0,0,1-2.578,2.207h-1.765v2.628h-1.4Zm3.029,3.22c.852,0,1.314-.431,1.314-1.043,0-.592-.462-1.013-1.314-1.013h-1.625v2.056Z" transform="translate(-1721.566 858.377)" fill="#999"/>
      <path id="Path_979" data-name="Path 979" d="M1744.705-849.215a2.639,2.639,0,0,1,2.678-2.728,2.64,2.64,0,0,1,2.678,2.728,2.64,2.64,0,0,1-2.678,2.728A2.64,2.64,0,0,1,1744.705-849.215Zm4,0a1.447,1.447,0,0,0-1.324-1.585,1.447,1.447,0,0,0-1.324,1.585,1.456,1.456,0,0,0,1.324,1.595A1.456,1.456,0,0,0,1748.707-849.215Z" transform="translate(-1738.346 853.929)" fill="#999"/>
      <path id="Path_980" data-name="Path 980" d="M1767.212-851.506l.772,3.471,1.133-3.471h1.284l1.134,3.471.772-3.471h1.374l-1.495,5.216h-1.223l-1.2-3.731-1.2,3.731h-1.224l-1.494-5.216Z" transform="translate(-1753.672 853.612)" fill="#999"/>
      <path id="Path_981" data-name="Path 981" d="M1798.611-851.943a2.444,2.444,0,0,1,2.518,2.7v.331h-3.792a1.323,1.323,0,0,0,1.324,1.374,1.141,1.141,0,0,0,1.153-.692h1.244a2.331,2.331,0,0,1-2.387,1.746,2.548,2.548,0,0,1-2.648-2.728A2.591,2.591,0,0,1,1798.611-851.943Zm1.2,2.076a1.175,1.175,0,0,0-1.2-1.1,1.245,1.245,0,0,0-1.234,1.1Z" transform="translate(-1775.561 853.929)" fill="#999"/>
      <path id="Path_982" data-name="Path 982" d="M1818.287-851.665h1.314v1.174a1.4,1.4,0,0,1,1.444-1.234,1.548,1.548,0,0,1,.4.04v1.3c-.1-.01-.2-.01-.331-.01-.923,0-1.455.572-1.455,1.625v2.317h-1.374Z" transform="translate(-1791.707 853.771)" fill="#999"/>
      <path id="Path_983" data-name="Path 983" d="M1834.051-851.943a2.444,2.444,0,0,1,2.518,2.7v.331h-3.792a1.323,1.323,0,0,0,1.324,1.374,1.141,1.141,0,0,0,1.154-.692h1.244a2.331,2.331,0,0,1-2.387,1.746,2.548,2.548,0,0,1-2.648-2.728A2.591,2.591,0,0,1,1834.051-851.943Zm1.2,2.076a1.174,1.174,0,0,0-1.2-1.1,1.246,1.246,0,0,0-1.234,1.1Z" transform="translate(-1801.262 853.929)" fill="#999"/>
      <path id="Path_984" data-name="Path 984" d="M1856.717-851.849v-.823a1.71,1.71,0,0,1-1.625.943,2.515,2.515,0,0,1-2.387-2.728,2.508,2.508,0,0,1,2.377-2.728,1.663,1.663,0,0,1,1.595.943v-2.929h1.374v7.322Zm-1.344-4.193a1.442,1.442,0,0,0-1.3,1.585,1.442,1.442,0,0,0,1.3,1.585,1.414,1.414,0,0,0,1.3-1.585A1.414,1.414,0,0,0,1855.373-856.041Z" transform="translate(-1816.667 859.171)" fill="#999"/>
      <path id="Path_985" data-name="Path 985" d="M1884.677-859.171h1.374v2.929a1.673,1.673,0,0,1,1.595-.943,2.508,2.508,0,0,1,2.377,2.728,2.516,2.516,0,0,1-2.387,2.728,1.72,1.72,0,0,1-1.625-.943v.823h-1.334Zm2.678,6.3a1.442,1.442,0,0,0,1.3-1.585,1.442,1.442,0,0,0-1.3-1.585,1.414,1.414,0,0,0-1.3,1.585A1.414,1.414,0,0,0,1887.355-852.872Z" transform="translate(-1839.852 859.171)" fill="#999"/>
      <path id="Path_986" data-name="Path 986" d="M1905.836-844.444v-1.143a1.519,1.519,0,0,0,.572.09c.532,0,.742-.291.9-.742l.03-.07-1.9-5.2h1.4l1.2,3.671,1.164-3.671h1.4l-1.856,5.216-.07.181c-.431,1.183-.862,1.785-2.046,1.785A2.649,2.649,0,0,1,1905.836-844.444Z" transform="translate(-1854.913 853.612)" fill="#999"/>
      <path id="Path_987" data-name="Path 987" d="M1934.579-858.076l1.043,4.835,1.424-4.835h1.384l1.425,4.835,1.043-4.835h1.5l-1.816,7.021h-1.354l-1.495-5.336-1.495,5.336h-1.354l-1.816-7.021Z" transform="translate(-1874.95 858.377)" fill="#999"/>
      <path id="Path_988" data-name="Path 988" d="M1971.089-851.823V-851a1.719,1.719,0,0,1,1.625-.943,2.515,2.515,0,0,1,2.388,2.728,2.508,2.508,0,0,1-2.377,2.728,1.674,1.674,0,0,1-1.595-.943v2.668h-1.374v-7.062Zm1.344,4.193a1.442,1.442,0,0,0,1.3-1.585,1.442,1.442,0,0,0-1.3-1.585,1.414,1.414,0,0,0-1.3,1.585A1.414,1.414,0,0,0,1972.433-847.63Z" transform="translate(-1901.55 853.929)" fill="#999"/>
      <path id="Path_989" data-name="Path 989" d="M2000.924-858.076h1.284l3.611,4.835v-4.835h1.334v7.021h-1.294l-3.611-4.835v4.835h-1.324Z" transform="translate(-1924.153 858.377)" fill="#999"/>
      <path id="Path_990" data-name="Path 990" d="M2027.532-849.215a2.64,2.64,0,0,1,2.678-2.728,2.64,2.64,0,0,1,2.678,2.728,2.64,2.64,0,0,1-2.678,2.728A2.64,2.64,0,0,1,2027.532-849.215Zm4,0a1.447,1.447,0,0,0-1.324-1.585,1.447,1.447,0,0,0-1.324,1.585,1.456,1.456,0,0,0,1.324,1.595A1.456,1.456,0,0,0,2031.534-849.215Z" transform="translate(-1943.449 853.929)" fill="#999"/>
      <path id="Path_991" data-name="Path 991" d="M2050.636-851.665h1.314v1.174a1.4,1.4,0,0,1,1.444-1.234,1.549,1.549,0,0,1,.4.04v1.3c-.1-.01-.2-.01-.331-.01-.923,0-1.454.572-1.454,1.625v2.317h-1.374Z" transform="translate(-1960.204 853.771)" fill="#999"/>
      <path id="Path_992" data-name="Path 992" d="M2067.824-851.849v-.823a1.71,1.71,0,0,1-1.625.943,2.515,2.515,0,0,1-2.387-2.728,2.508,2.508,0,0,1,2.377-2.728,1.663,1.663,0,0,1,1.595.943v-2.929h1.375v7.322Zm-1.344-4.193a1.442,1.442,0,0,0-1.3,1.585,1.442,1.442,0,0,0,1.3,1.585,1.414,1.414,0,0,0,1.3-1.585A1.414,1.414,0,0,0,2066.48-856.041Z" transform="translate(-1969.759 859.171)" fill="#999"/>
      <path id="Path_993" data-name="Path 993" d="M2088.156-858.951h1.394v1.324h-1.394Zm.01,2.046h1.374v5.216h-1.374Z" transform="translate(-1987.413 859.011)" fill="#999"/>
      <path id="Path_994" data-name="Path 994" d="M2099.646-851.943a2.343,2.343,0,0,1,2.478,2.066h-1.314a1.153,1.153,0,0,0-1.154-.9,1.4,1.4,0,0,0-1.3,1.565,1.406,1.406,0,0,0,1.3,1.575,1.161,1.161,0,0,0,1.154-.913h1.314a2.343,2.343,0,0,1-2.478,2.067,2.616,2.616,0,0,1-2.658-2.728A2.616,2.616,0,0,1,2099.646-851.943Z" transform="translate(-1993.818 853.929)" fill="#999"/>
    </g>
    <g id="Group_11924" data-name="Group 11924" transform="translate(1198.176 -884.849)">
      <path id="Path_995" data-name="Path 995" d="M1638.505-870.531c2.565,0,3.923,1.81,3.923,4.194v.483h-5.552a1.668,1.668,0,0,0,1.7,1.675,1.5,1.5,0,0,0,1.509-.845h2.278a3.661,3.661,0,0,1-3.757,2.761,3.911,3.911,0,0,1-4.164-4.134A3.984,3.984,0,0,1,1638.505-870.531Zm1.524,3.093a1.487,1.487,0,0,0-1.524-1.343,1.6,1.6,0,0,0-1.584,1.343Z" transform="translate(-1555.476 873.702)" fill="#999"/>
      <path id="Path_996" data-name="Path 996" d="M1471.587-882.073a5.176,5.176,0,0,1,5.265-5.492,4.772,4.772,0,0,1,5.024,4.043h-1.586a1.662,1.662,0,0,1-1.394-.727,2.27,2.27,0,0,0-2.014-1.054c-1.69,0-2.7,1.464-2.7,3.229s1.011,3.229,2.7,3.229a2.27,2.27,0,0,0,2.014-1.054,1.662,1.662,0,0,1,1.394-.727h1.586a4.773,4.773,0,0,1-5.024,4.044A5.176,5.176,0,0,1,1471.587-882.073Z" transform="translate(-1418.294 888.05)" fill="#999"/>
      <path id="Path_997" data-name="Path 997" d="M1133.57-882.073a5.176,5.176,0,0,1,5.265-5.492,4.772,4.772,0,0,1,5.024,4.043h-1.586a1.662,1.662,0,0,1-1.394-.727,2.27,2.27,0,0,0-2.014-1.054c-1.69,0-2.7,1.464-2.7,3.229s1.011,3.229,2.7,3.229a2.27,2.27,0,0,0,2.014-1.054,1.662,1.662,0,0,1,1.394-.727h1.586a4.772,4.772,0,0,1-5.024,4.044A5.176,5.176,0,0,1,1133.57-882.073Z" transform="translate(-1133.57 888.05)" fill="#999"/>
      <path id="Path_998" data-name="Path 998" d="M1202.269-866.4a4.035,4.035,0,0,1,4.194-4.134,4.035,4.035,0,0,1,4.194,4.134,4.035,4.035,0,0,1-4.194,4.134A4.035,4.035,0,0,1,1202.269-866.4Zm5.884,0a1.847,1.847,0,0,0-1.69-2.052,1.847,1.847,0,0,0-1.69,2.052,1.847,1.847,0,0,0,1.69,2.052A1.847,1.847,0,0,0,1208.153-866.4Z" transform="translate(-1191.438 873.702)" fill="#999"/>
      <path id="Path_999" data-name="Path 999" d="M1258.66-866.4a4.035,4.035,0,0,1,4.194-4.134,4.035,4.035,0,0,1,4.194,4.134,4.035,4.035,0,0,1-4.194,4.134A4.035,4.035,0,0,1,1258.66-866.4Zm5.884,0a1.847,1.847,0,0,0-1.69-2.052,1.847,1.847,0,0,0-1.69,2.052,1.847,1.847,0,0,0,1.69,2.052A1.847,1.847,0,0,0,1264.544-866.4Z" transform="translate(-1238.938 873.702)" fill="#999"/>
      <path id="Path_1000" data-name="Path 1000" d="M1317.633-889.1h2.535v5.793l1.922-2.179a1.5,1.5,0,0,1,1.121-.506h2.312l-2.761,3.168,2.836,4.737h-2.851l-1.7-2.9-.875.89v2.007h-2.535Z" transform="translate(-1288.613 889.34)" fill="#999"/>
      <path id="Path_1001" data-name="Path 1001" d="M1373.773-890.642h.377a1.2,1.2,0,0,1,1.2,1.205h0a1.2,1.2,0,0,1-1.2,1.205h-.377a1.205,1.205,0,0,1-1.205-1.205h0A1.205,1.205,0,0,1,1373.773-890.642Zm-1.079,3.352h1.2a1.33,1.33,0,0,1,1.33,1.33v6.576h-2.535Z" transform="translate(-1334.886 890.642)" fill="#999"/>
      <path id="Path_1002" data-name="Path 1002" d="M1400.988-870.531c2.565,0,3.923,1.81,3.923,4.194v.483h-5.552a1.668,1.668,0,0,0,1.7,1.675,1.5,1.5,0,0,0,1.509-.845h2.278a3.661,3.661,0,0,1-3.757,2.761,3.911,3.911,0,0,1-4.164-4.134A3.984,3.984,0,0,1,1400.988-870.531Zm1.524,3.093a1.487,1.487,0,0,0-1.524-1.343,1.6,1.6,0,0,0-1.584,1.343Z" transform="translate(-1355.407 873.702)" fill="#999"/>
      <path id="Path_1003" data-name="Path 1003" d="M1545.683-867.257l1.6-.136v-.332c0-.558-.347-.951-1.071-.951a1.05,1.05,0,0,0-1.177.875h-2.4a3.3,3.3,0,0,1,3.591-2.731c2.293,0,3.591,1.192,3.591,3.047v5.039h-2.459V-863.5a2.407,2.407,0,0,1-2.278,1.237,2.426,2.426,0,0,1-2.7-2.474C1542.379-866.337,1543.45-867.076,1545.683-867.257Zm.2,3.3a1.283,1.283,0,0,0,1.4-1.418v-.437l-1.192.121c-.724.076-1.252.256-1.252.86C1544.838-864.285,1545.246-863.953,1545.879-863.953Z" transform="translate(-1477.924 873.702)" fill="#999"/>
      <path id="Path_1004" data-name="Path 1004" d="M1599.6-869.868h1.882a.547.547,0,0,1,.547.547v1.174a1.984,1.984,0,0,1,2.022-1.81,2.215,2.215,0,0,1,.588.06v2.474c-.151-.015-.3-.015-.483-.015-1.373,0-2.022.724-2.022,2.128v3.349H1599.6Z" transform="translate(-1526.127 873.219)" fill="#999"/>
    </g>
  </g>
</svg>
