<?xml version="1.0" encoding="UTF-8"?>
<svg id="Lag_2" data-name="Lag 2" xmlns="http://www.w3.org/2000/svg" viewBox="0 0 440.99 552.84">
  <defs>
    <style>
      .cls-1 {
        fill: #e5ddd2;
        stroke-width: 0px;
      }
    </style>
  </defs>
  <g id="Layer_1" data-name="Layer 1">
    <g>
      <polygon class="cls-1" points="201.09 377.44 201.09 359.25 315.6 359.25 315.6 377.44 258.34 367.61 201.09 377.44"/>
      <g>
        <path class="cls-1" d="M220.71,552.44c-32.11,2.46-64.89-6.69-93.45-22.73-28.39-16.65-52.35-40.3-71.37-67.11-19.28-26.78-32.65-57.39-42.04-88.85C4.76,342.13.42,309.27,0,276.42c.45-32.85,4.75-65.71,13.87-97.33,9.37-31.47,22.78-62.05,42.05-88.83,19.02-26.8,42.96-50.47,71.36-67.1C155.82,7.11,188.59-2.05,220.71.39v1.32c-31.79.16-63.08,10.26-89.73,27.31-26.77,17.01-49.1,40.48-66.55,66.89C29.44,149.06,13.51,213.15,13.16,276.42c.35,63.26,16.28,127.36,51.27,180.51,17.45,26.41,39.78,49.88,66.55,66.89,26.65,17.04,57.94,27.15,89.72,27.31v1.32Z"/>
        <path class="cls-1" d="M220.28.4c32.11-2.46,64.89,6.69,93.45,22.73,28.39,16.65,52.35,40.3,71.37,67.11,19.28,26.78,32.65,57.39,42.04,88.85,9.08,31.63,13.42,64.49,13.84,97.34-.45,32.85-4.75,65.71-13.87,97.33-9.37,31.47-22.78,62.05-42.05,88.83-19.02,26.8-42.96,50.47-71.36,67.1-28.55,16.05-61.32,25.2-93.43,22.76v-1.32c31.79-.16,63.08-10.26,89.73-27.31,26.77-17.01,49.1-40.48,66.55-66.89,34.99-53.15,50.92-117.25,51.27-180.51-.35-63.26-16.28-127.36-51.27-180.51-17.45-26.41-39.78-49.88-66.55-66.89C283.36,11.98,252.07,1.87,220.28,1.71V.4Z"/>
      </g>
      <path class="cls-1" d="M215.3,168.41c-6.23-.9-13.02-1.32-20.22-1.38h-.9c-9,0-22.43.62-34.89.62s-28.04-.35-33.99-.62v3.12h1.25c9.69,0,14.33,2.77,14.33,8.1v212.83c0,5.26-5.26,8.1-15.58,8.45v3.12c9.97-.69,15.58-1.25,25.55-1.25s15.92.55,25.89,1.25v-3.12c-10.25-.35-15.58-3.18-15.58-8.45v-102.47h33.93c7.06-.07,13.85-.83,20.22-2.28,33.51-7.41,56.5-32.4,56.5-64.11,0-29.84-20.36-48.74-56.5-53.8ZM215.3,279.05c-6.3,2.98-13.15,4.71-20.22,4.85h-33.93v-103.51c0-5.88,2.77-8.72,8.72-8.72h22.43c.9,0,1.87,0,2.77.07,7.34.21,14.12,1.38,20.22,3.39,21.6,6.92,34.69,24.23,34.69,47.63,0,24.65-14.68,46.8-34.69,56.29Z"/>
      <path class="cls-1" d="M330.65,282.93h-4.71c0,32.75-18.35,49.3-55.46,49.3h-39.6c-10.25,0-15.58-2.84-15.58-8.45v-193.86c0-5.26,4.71-8.1,14.33-8.1h1.25v-3.12c-9.97.62-15.58,1.25-25.55,1.25s-15.85-.62-25.82-1.25v3.12h1.25c9.62,0,14.33,2.84,14.33,8.1v195.45c0,5.26-5.33,8.1-15.58,8.38v3.12c23.68,0,41.13-.62,71.93-.62h21.19l36.83.62h21.19c-1.25-19.32-1.25-34.55,0-53.93Z"/>
    </g>
  </g>
</svg>