<?xml version="1.0" encoding="UTF-8"?>
<svg id="Lag_2" data-name="Lag 2" xmlns="http://www.w3.org/2000/svg" viewBox="0 0 61 43.22">
  <defs>
    <style>
      .cls-1 {
        fill: #8c6e47;
        stroke-width: 0px;
      }
    </style>
  </defs>
  <g id="Lag_1-2" data-name="Lag 1">
    <g>
      <path class="cls-1" d="M7.76,17.27v7.62h1.5v-6.35h43v6.35h1.25c.08,0,.17,0,.25,0v-7.61H7.76Z"/>
      <path class="cls-1" d="M0,0v17.4c0,4.14,3.35,7.49,7.49,7.49h46.02c.08,0,.17,0,.25-.01,4.01-.13,7.24-3.42,7.24-7.48V0H0ZM59.5,17.4c0,3.22-2.55,5.85-5.74,5.98-.08.01-.17.01-.25.01H7.49c-3.3,0-5.99-2.69-5.99-5.99V1.5h58v15.9Z"/>
      <rect class="cls-1" x="21.76" y="11.14" width="18" height="1.5"/>
      <rect class="cls-1" x="51.76" y="11.14" width="2" height="1.5"/>
      <rect class="cls-1" x="47.76" y="11.14" width="2" height="1.5"/>
      <rect class="cls-1" x="43.76" y="11.14" width="2" height="1.5"/>
    </g>
    <g>
      <path class="cls-1" d="M9.29,43.02h-2.29v-1.5h2.29c3.77,0,3.96-1.65,3.96-6.4v-3.85h1.5v3.85c0,4.24,0,7.9-5.46,7.9Z"/>
      <path class="cls-1" d="M54,43.02h-2.29c-5.46,0-5.46-3.66-5.46-7.9v-3.85h1.5v3.85c0,4.76.19,6.4,3.96,6.4h2.29v1.5Z"/>
      <rect class="cls-1" x="29.95" y="31.47" width="1.38" height="11.75"/>
      <rect class="cls-1" x="37.62" y="31.47" width="1.38" height="11.75"/>
      <rect class="cls-1" x="22.28" y="31.47" width="1.38" height="11.75"/>
    </g>
  </g>
</svg>