<?xml version="1.0" encoding="UTF-8"?>
<svg id="Lag_2" data-name="Lag 2" xmlns="http://www.w3.org/2000/svg" viewBox="0 0 61.25 51.56">
  <defs>
    <style>
      .cls-1 {
        fill: #8c6e47;
        stroke-width: 0px;
      }
    </style>
  </defs>
  <g id="Lag_1-2" data-name="Lag 1">
    <g>
      <path class="cls-1" d="M55.83,8.23s-.02.08-.02.12h.16s-.14-.12-.14-.12ZM59.56,11.4l.32.26c.07-.18.13-.36.19-.54-.16.11-.33.21-.51.28Z"/>
      <path class="cls-1" d="M58.52,6.12c-.73,0-1.4.28-1.88.74h-2.45s-.67-.57-.67-.57l-1.49-1.27-4.06-3.45c-1.16-.98-2.61-1.51-4.12-1.52l-10.7-.05-1.51,1.49-5.36,5.32-.53.53c-.62.62-.98,1.46-.98,2.35l-.02,4.03c0,.46.05.9.12,1.33.08.41.2.8.34,1.17.22.54.5,1.04.84,1.5.05.08.1.15.16.22.08.11.17.21.27.31.18.21.39.41.61.6.11.09.22.18.33.26.31.24.63.44.98.61.13.08.26.14.4.2.16.07.32.13.49.18.18.07.36.12.55.16.04.02.07.02.1.03.16.04.32.07.49.09.06.02.13.02.19.03.15.02.3.04.46.04.05.01.09.01.14.01.02.01.04.01.06,0l-.06.04-16.06,9.54h-.03s-1.59.96-1.59.96l-.03.02c-.48.34-.92.71-1.34,1.11-2.02,1.98-3.27,4.74-3.29,7.79v.44c0,1.61.32,3.13.94,4.5l-6.78-.03c-1.66,0-3.01,1.33-3.01,2.99v.5c0,1.66,1.32,3.01,2.98,3.01l28.84.13c.82,0,1.48-.65,1.49-1.47v-.02c0-1.37-.54-2.6-1.42-3.51-.58-.59-1.31-1.05-2.11-1.29.03-.07.07-.14.1-.22.63-1.37.97-2.89.98-4.5v-.51c0-.82-.09-1.62-.27-2.39-.31-1.43-.92-2.75-1.74-3.92l-1.22.86c.77,1.09,1.32,2.36,1.57,3.72.11.58.16,1.18.16,1.79v.44c0,1.63-.43,3.16-1.15,4.49-.29.53-.63,1.03-1.02,1.5h1.12c.24,0,.47.03.69.08,1.61.33,2.82,1.75,2.83,3.44l-12.02-.06c-.84,0-1.66-.12-2.43-.33-.49-.13-.96-.29-1.42-.51-1.37-.61-2.56-1.54-3.5-2.7-.38-.47-.72-.97-1-1.5-.71-1.34-1.12-2.88-1.11-4.51v-.44c.02-3.16,1.58-5.95,3.97-7.67l.02-.02c.43-.31.9-.59,1.38-.82l.05-.02,4.07-2.42,11.34-6.74,1.04-.62.46-.28v-.99c.21-.04.42-.09.64-.15.18-.05.36-.11.54-.19.03,0,.06,0,.09-.03.15-.06.3-.12.45-.21.05,0,.09-.03.13-.06.11-.05.22-.11.32-.18.11-.05.22-.12.33-.2.15-.1.3-.2.44-.32.09-.06.17-.13.25-.21.1-.08.19-.16.28-.25.12-.12.23-.24.34-.37.13-.15.25-.3.37-.46.19-.24.35-.49.49-.75.09-.15.17-.3.23-.46.05-.09.09-.19.12-.29.06-.12.1-.24.14-.37.04-.12.08-.25.11-.38.03-.12.07-.24.09-.37.02-.06.03-.12.03-.18.04-.17.07-.34.08-.51.02-.15.03-.29.03-.44.01-.08.01-.17.01-.25l.06-12.25,4.98.02c1.51,0,2.97.54,4.12,1.52l4.45,3.77.17.14,1.49,1.27.12.1h2.18s.01-.07.02-.11l.14.12h-.16c-.03.16-.05.33-.05.5,0,.86.38,1.62.99,2.12.42.35.95.57,1.53.63-.07.16-.15.32-.23.48-.98,1.75-2.61,3.09-4.57,3.67-.48.15-.98.25-1.5.29-.25.03-.51.04-.77.04l-4.54-.02c-.69,0-1.35-.16-1.94-.44-.05-.02-.1-.04-.15-.07-.51-.26-.97-.6-1.35-1.03-.15-.15-.28-.31-.38-.48-.28-.38-.49-.79-.62-1.25h-1.57c.11.43.26.85.44,1.24.26.55.61,1.06,1.01,1.5.25.28.52.53.82.75.09.07.19.14.29.21l-.03,6.69c.54.35,1.04.77,1.49,1.24,1.69,1.73,2.73,4.08,2.72,6.69v.44c-.02,3.19-1.61,6.01-4.04,7.72-.47.34-.97.63-1.5.86l-.03,6.39h1.48s.01,0,.02,0c1.93.02,3.49,1.61,3.5,3.52l-10.02-.05.05-10.25h-1.5s-.05,11.74-.05,11.74l11.52.05c.82,0,1.48-.65,1.49-1.47.01-2.76-2.22-5.02-4.98-5.04l.02-3.97c3.3-1.88,5.53-5.42,5.54-9.5v-.44c.02-3.53-1.63-6.68-4.21-8.71l.02-5.19c.61.21,1.26.33,1.94.33l4.54.02c.78,0,1.54-.09,2.27-.28.84-.21,1.64-.53,2.38-.95,1.79-1.03,3.2-2.63,3.98-4.56h0s.04-.09.05-.13l-.32-.26c.18-.07.35-.17.51-.28.71-.5,1.18-1.31,1.18-2.24,0-1.52-1.22-2.76-2.74-2.76ZM10.61,46.4c.92,1.44,2.18,2.65,3.65,3.52l-11.27-.05c-.83,0-1.5-.68-1.49-1.51v-.5c0-.83.68-1.5,1.51-1.49l7.6.04ZM36.73,13.77c0,.08,0,.17-.01.25-.02.53-.13,1.03-.31,1.5-.04.13-.09.26-.15.38-.05.13-.11.25-.18.37-.14.27-.31.52-.49.75-.22.28-.46.53-.73.75-.15.13-.3.24-.46.35-.2.13-.4.25-.62.35-.15.09-.3.16-.47.21-.19.08-.39.14-.59.18-.1.03-.19.05-.29.07-.13.03-.26.05-.39.06-.1,0-.2.02-.31.02-.09,0-.17,0-.26,0-.08,0-.17,0-.25-.01-.03,0-.06,0-.09-.01-.12,0-.24-.01-.35-.03-.14-.02-.28-.04-.42-.07-.13-.03-.26-.06-.38-.1-.11-.03-.21-.07-.31-.11-.14-.04-.27-.1-.4-.16-.35-.16-.68-.36-.97-.59-.08-.05-.15-.11-.22-.17,0-.01-.02-.02-.03-.03-.02-.01-.04-.03-.06-.04-.11-.1-.22-.2-.31-.31-.12-.12-.23-.24-.32-.37-.19-.23-.36-.48-.49-.75-.05-.07-.09-.14-.12-.22-.05-.09-.1-.2-.14-.3-.06-.13-.11-.27-.15-.42-.05-.16-.1-.33-.13-.5-.07-.34-.11-.69-.11-1.06l.02-3.41c0-.89.36-1.73.98-2.35l5.56-5.5.96-.96h3.04s-.06,12.26-.06,12.26ZM58.81,10.07c-.1.04-.2.05-.31.05-.26,0-.5-.08-.7-.21-.08-.06-.16-.12-.23-.2-.2-.22-.32-.52-.32-.84,0-.18.04-.34.11-.5.19-.44.63-.75,1.14-.74.69,0,1.25.57,1.24,1.26,0,.58-.4,1.07-.95,1.2Z"/>
    </g>
  </g>
</svg>