<?xml version="1.0" encoding="UTF-8"?>
<svg id="Layer_1" data-name="Layer 1" xmlns="http://www.w3.org/2000/svg" viewBox="0 0 240 240">
  <defs>
    <style>
      .cls-1 {
        fill: #3A57F8;
        stroke-width: 0px;
      }
    </style>
  </defs>
  <path class="cls-1" d="M11.13,120.85C11.13,59.57,51.57,7.62,119.69,7.62c59.72,0,95.49,36.7,103.58,83.36h-32.7c-11.45,0-22.45-5.41-28.75-14.98-8.03-12.19-20.89-21.73-41.52-21.73-34.84,0-55.68,30.17-55.68,66.57s20.84,66.56,55.68,66.56c20.62,0,33.49-9.53,41.52-21.73,6.3-9.57,17.29-14.98,28.75-14.98h32.7c-8.09,46.66-43.86,83.36-103.58,83.36-68.12,0-108.56-51.94-108.56-113.22Z"/>
</svg>