<?xml version="1.0" encoding="UTF-8"?>
<svg id="Lag_2" data-name="Lag 2" xmlns="http://www.w3.org/2000/svg" viewBox="0 0 660.13 413.56">
  <defs>
    <style>
      .cls-1 {
        fill: #e5ddd2;
        stroke-width: 0px;
      }
    </style>
  </defs>
  <g id="Layer_1" data-name="Layer 1">
    <g>
      <polygon class="cls-1" points="321.52 166.26 321.52 158.25 371.96 158.25 371.96 166.26 346.74 161.93 321.52 166.26"/>
      <g>
        <path class="cls-1" d="M196.41,411.73c-3.42,0-5.95-2.9-5.95-6.88s2.52-6.88,5.95-6.88c2.64,0,4.85,1.71,5.69,4.41h1.97c-.93-3.77-3.89-6.15-7.63-6.15-4.56,0-7.89,3.63-7.89,8.65s3.34,8.68,7.89,8.68c3.74,0,6.7-2.44,7.63-6.21h-1.97c-.84,2.7-3.05,4.38-5.69,4.38Z"/>
        <path class="cls-1" d="M225.75,396.23c-4.56,0-7.89,3.63-7.89,8.65s3.34,8.68,7.89,8.68,7.92-3.66,7.92-8.68-3.31-8.65-7.92-8.65ZM225.75,411.73c-3.42,0-5.98-2.9-5.98-6.88s2.55-6.88,5.98-6.88,6.04,2.96,6.04,6.91-2.55,6.85-6.04,6.85Z"/>
        <path class="cls-1" d="M259.55,396.58h-11.29v16.6h1.74v-7.52h9.55c2.55,0,4.21-1.74,4.21-4.5s-1.65-4.58-4.21-4.58ZM259.55,404.07h-9.55v-5.89h9.55c1.51,0,2.47,1.19,2.47,3.02s-.93,2.87-2.47,2.87Z"/>
        <path class="cls-1" d="M293.15,398.18v-1.6h-14.83v16.6h14.83v-1.6h-13.09v-5.92h9.75v-1.6h-9.75v-5.89h13.09Z"/>
        <path class="cls-1" d="M321.47,396.58v14.04l-11.61-14.04h-1.83v16.6h1.74v-14.07l11.58,14.07h1.86v-16.6h-1.74Z"/>
        <path class="cls-1" d="M352.03,396.58v7.49h-11.72v-7.49h-1.71v16.6h1.71v-7.52h11.72v7.52h1.74v-16.6h-1.74Z"/>
        <path class="cls-1" d="M376.78,396.47h-2.03l-7.08,16.71h1.8l1.91-4.56h8.88l1.97,4.56h1.86l-7.31-16.71ZM371.93,407.03l3.8-9.23,4.06,9.23h-7.86Z"/>
        <path class="cls-1" d="M412.09,404.27h-7.08v1.6h5.28c-.41,3.45-2.93,5.86-6.09,5.86-3.45,0-6.01-2.9-6.01-6.88s2.52-6.88,5.95-6.88c1.86,0,3.57.87,4.73,2.38l2.21-.03c-1.39-2.58-3.98-4.09-6.93-4.09-4.53,0-7.86,3.66-7.86,8.65s3.34,8.68,7.95,8.68,7.89-3.66,7.89-8.68l-.03-.61Z"/>
        <path class="cls-1" d="M441.51,398.18v-1.6h-14.8v16.6h14.8v-1.6h-13.09v-5.92h9.75v-1.6h-9.75v-5.89h13.09Z"/>
        <path class="cls-1" d="M469.86,396.58v14.04l-11.61-14.04h-1.86v16.6h1.74v-14.07l11.58,14.07h1.86v-16.6h-1.71Z"/>
      </g>
      <g>
        <path class="cls-1" d="M0,351.02c3.93-.09,5.96-.97,5.96-2.61v-60.69c0-1.65-1.79-2.51-5.48-2.51h-.48v-.97c2.26.09,8.34.2,12.99.2s9.89-.2,13.35-.2c18.83,0,29.68,6.19,29.68,17.13,0,11.81-12.64,20.62-29.68,20.62h-12.64v26.42c0,1.64,2.03,2.51,5.96,2.61v.97c-3.81-.2-6.08-.39-9.89-.39s-5.96.19-9.77.39v-.97ZM26.34,320.54c11.44,0,21.34-8.81,21.34-18.98,0-9.58-8.7-15.87-22.05-15.87h-8.58c-2.27,0-3.34.87-3.34,2.71v32.14h12.64Z"/>
        <path class="cls-1" d="M96.26,284.05l32.78,63.01c1.31,2.61,4.17,3.96,8.46,3.96v.97c-4.53-.2-7.03-.39-11.56-.39s-7.03.19-11.56.39v-.97c4.53,0,6.79-.87,6.79-2.51,0-.49-.12-.97-.48-1.45l-9.66-18.49h-38.02l-9.66,18.49c-.36.68-.48,1.25-.48,1.74,0,1.45,1.43,2.22,4.41,2.22v.97c-2.86-.2-4.41-.39-7.27-.39s-4.05.19-6.91.39v-.97c4.17,0,7.03-1.36,8.34-3.96l32.9-63.01h1.91ZM110.33,327.12l-18.36-34.94-18.24,34.94h36.6Z"/>
        <path class="cls-1" d="M295.64,285.21c-4.17,0-7.63,1.36-10.13,3.96l-19.55,20.72,28.96,37.17c2.03,2.61,5.01,3.87,9.06,3.87h.36v1.06c-4.41-.2-6.92-.39-11.33-.39s-6.91.19-11.32.39v-.97c3.22,0,4.89-.68,4.89-1.93,0-.49-.36-1.17-.95-2.03l-18.6-23.91c-3.46-4.45-6.68-6-14.07-6.29v31.65c0,1.65,1.79,2.51,5.48,2.51h.48v.97c-3.81-.2-5.96-.39-9.78-.39s-6.08.19-9.89.39v-.97h.48c3.69,0,5.48-.87,5.48-2.51v-60.79c0-1.65-1.79-2.51-5.48-2.51h-.48v-.97c3.81.2,6.08.39,9.89.39s5.96-.19,9.78-.39v.97h-.48c-3.69,0-5.48.87-5.48,2.51v27.3c4.29-.58,8.23-2.62,11.21-5.71l19.07-20.14c.83-.87,1.31-1.64,1.31-2.32,0-1.06-1.55-1.65-4.53-1.65v-.97c2.98.2,4.77.39,7.75.39,1.55,0,2.74-.09,3.93-.09l3.94-.29v.97Z"/>
        <path class="cls-1" d="M412.2,335.25c-.48,6.01-.48,10.75,0,16.75h-8.11l-14.06-.2h-8.1c-11.8,0-18.48.2-27.54.2v-.97c3.93-.09,5.96-.97,5.96-2.61v-60.69c0-1.65-1.79-2.51-5.48-2.51h-.48v-.97c3.81.2,6.08.39,9.89.39s5.96-.19,9.78-.39v.97h-.48c-3.69,0-5.48.87-5.48,2.51v60.2c0,1.74,2.03,2.62,5.96,2.62h15.14c14.18,0,21.22-5.13,21.22-15.3h1.79Z"/>
        <path class="cls-1" d="M465.34,284.05l32.78,63.01c1.31,2.61,4.17,3.96,8.46,3.96v.97c-4.53-.2-7.03-.39-11.56-.39s-7.03.19-11.56.39v-.97c4.53,0,6.79-.87,6.79-2.51,0-.49-.12-.97-.48-1.45l-9.66-18.49h-38.02l-9.66,18.49c-.36.68-.48,1.25-.48,1.74,0,1.45,1.43,2.22,4.41,2.22v.97c-2.86-.2-4.41-.39-7.27-.39s-4.05.19-6.91.39v-.97c4.17,0,7.03-1.36,8.34-3.96l32.9-63.01h1.91ZM479.41,327.12l-18.36-34.94-18.24,34.94h36.6Z"/>
        <path class="cls-1" d="M524.32,287.05v61.37c0,1.64,2.03,2.51,5.96,2.61v.97c-2.74-.2-4.17-.39-6.79-.39s-4.17.19-6.91.39v-.97c3.93-.09,5.96-.97,5.96-2.61v-60.69c0-1.65-1.79-2.51-5.48-2.51h-.48v-.97c2.98.2,4.65.39,7.51.39s4.29-.19,7.27-.39l45.65,56.14v-52.65c0-1.65-1.79-2.51-5.48-2.51h-.48v-.97c2.75.2,4.17.39,6.79.39s4.17-.19,6.92-.39v.97h-.48c-3.7,0-5.48.87-5.48,2.51v64.27h-1.67l-52.81-64.95Z"/>
        <path class="cls-1" d="M660.13,335.25c-.23,3.29-.48,5.13-.48,8.42s.24,5.03.48,8.32h-8.1l-14.06-.2h-8.1c-11.8,0-18.48.2-27.54.2v-.97c3.93-.09,5.96-.97,5.96-2.61v-60.69c0-1.65-1.79-2.51-5.48-2.51h-.48v-.97c8.58,0,15.01.2,26.1.2s17.53-.2,29.33-.2c-.24,2.91-.48,4.45-.48,7.35s.23,4.56.48,7.46h-1.55c0-8.91-7.04-13.36-21.22-13.36h-13c-3.93,0-5.96,1.65-5.96,4.84v25.46h18.6c2.03,0,3.1-2.22,3.1-6.58v-.48h1.55c-.24,3-.48,4.74-.48,7.74s.23,4.74.48,7.84h-1.55v-.48c0-4.36-1.07-6.58-3.1-6.58h-18.6v30.48c0,1.74,1.91,2.62,5.84,2.62h15.26c14.18,0,21.22-5.13,21.22-15.3h1.79Z"/>
        <path class="cls-1" d="M220.43,358.57c-3.22-2.31-5.95-5.09-7.96-8.25-5.73-9.01-6.72-19.78-15.03-27.74-1.32-1.26-5.61-4.92-8.02-4.44,11.93-2.42,20.18-9.44,20.18-18.16,0-10.01-10.73-15.74-29.72-15.74-3.48,0-8.55.16-13.32.16s-10.73-.08-13.02-.16v.97h.5c3.68,0,5.47.89,5.47,2.5v60.69c0,1.61-2.09,2.5-5.96,2.58v.97c3.78-.16,5.96-.32,9.74-.32s6.06.16,9.94.32v-.97c-3.98-.08-5.96-.97-5.96-2.58v-29.29h11.53c8.48,0,17.18,15.03,19.94,20.49,3.78,7.46,6.76,15.81,13.9,21.85,7.38,6.24,18.78,8.74,29.18,8.47,3.13-.08,6.25-.43,9.29-1.06,3.43-.71,6.78-1.69,9.97-2.92.95-.37,2.83-1.64,3.88-1.69-1.98.09-4.15.84-6.12,1.14-2.32.35-4.67.61-7.02.75-4.56.28-9.16.14-13.66-.55-6.56-1.01-12.73-3.45-17.71-7.03ZM179.87,317.66h-12.62v-29.29c0-1.78,1.09-2.66,3.28-2.66h8.65c13.32,0,22.06,5.73,22.06,14.45,0,9.36-9.94,17.51-21.37,17.51Z"/>
      </g>
      <g>
        <path class="cls-1" d="M330.16,243.34c-14.15,1.08-28.58-2.95-41.16-10.01-12.51-7.33-23.06-17.75-31.44-29.56-8.49-11.8-14.38-25.28-18.52-39.14-4-13.93-5.91-28.41-6.1-42.88.2-14.47,2.09-28.94,6.11-42.87,4.13-13.86,10.03-27.33,18.52-39.13,8.38-11.81,18.92-22.23,31.43-29.56,12.57-7.07,27.01-11.1,41.16-10.03v.58c-14,.07-27.78,4.52-39.52,12.03-11.79,7.49-21.63,17.83-29.32,29.46-15.41,23.41-22.43,51.65-22.58,79.51.15,27.87,7.17,56.1,22.58,79.51,7.69,11.63,17.52,21.97,29.31,29.46,11.74,7.51,25.52,11.96,39.52,12.03v.58Z"/>
        <path class="cls-1" d="M329.97.17c14.15-1.08,28.58,2.95,41.16,10.01,12.51,7.33,23.06,17.75,31.44,29.56,8.49,11.8,14.38,25.28,18.52,39.14,4,13.93,5.91,28.41,6.1,42.88-.2,14.47-2.09,28.94-6.11,42.87-4.13,13.86-10.03,27.33-18.52,39.13-8.38,11.81-18.92,22.23-31.43,29.56-12.57,7.07-27.01,11.1-41.16,10.03v-.58c14-.07,27.78-4.52,39.52-12.03,11.79-7.49,21.63-17.83,29.32-29.46,15.41-23.41,22.43-51.65,22.58-79.51-.15-27.87-7.17-56.1-22.58-79.51-7.69-11.63-17.52-21.97-29.31-29.46-11.74-7.51-25.52-11.96-39.52-12.03V.17Z"/>
      </g>
      <path class="cls-1" d="M327.78,74.18c-2.74-.4-5.73-.58-8.91-.61h-.4c-3.96,0-9.88.27-15.37.27s-12.35-.15-14.97-.27v1.37h.55c4.27,0,6.31,1.22,6.31,3.57v93.75c0,2.32-2.32,3.57-6.86,3.72v1.37c4.39-.31,6.86-.55,11.25-.55s7.01.24,11.41.55v-1.37c-4.51-.15-6.86-1.4-6.86-3.72v-45.14h14.94c3.11-.03,6.1-.37,8.91-1.01,14.76-3.26,24.89-14.27,24.89-28.24,0-13.14-8.97-21.47-24.89-23.7ZM327.78,122.92c-2.78,1.31-5.79,2.07-8.91,2.13h-14.94v-45.59c0-2.59,1.22-3.84,3.84-3.84h9.88c.4,0,.82,0,1.22.03,3.23.09,6.22.61,8.91,1.49,9.52,3.05,15.28,10.67,15.28,20.98,0,10.86-6.47,20.62-15.28,24.79Z"/>
      <path class="cls-1" d="M378.58,124.63h-2.07c0,14.43-8.08,21.71-24.43,21.71h-17.44c-4.51,0-6.86-1.25-6.86-3.72V57.23c0-2.32,2.07-3.57,6.31-3.57h.55v-1.37c-4.39.27-6.86.55-11.25.55s-6.98-.27-11.38-.55v1.37h.55c4.24,0,6.31,1.25,6.31,3.57v86.09c0,2.32-2.35,3.57-6.86,3.69v1.37c10.43,0,18.12-.27,31.69-.27h9.33l16.22.27h9.33c-.55-8.51-.55-15.22,0-23.76Z"/>
    </g>
  </g>
</svg>