<?xml version="1.0" encoding="UTF-8"?>
<svg id="Lag_2" data-name="Lag 2" xmlns="http://www.w3.org/2000/svg" viewBox="0 0 61 58.93">
  <defs>
    <style>
      .cls-1 {
        fill: #8c6e47;
        stroke-width: 0px;
      }
    </style>
  </defs>
  <g id="Lag_1-2" data-name="Lag 1">
    <path class="cls-1" d="M53.77,0v10.62h-2.07V0H0v58.93h51.7v-9.59h2.07v9.59h7.23V0h-7.23ZM19.5,57.43h-6.5v-12.59c0-.58.44-1.05,1-1.11.04-.01.09-.01.13-.01h4.25s.08,0,.12.01c.56.06,1,.53,1,1.11v12.59ZM15.5,42.22v-5.5h1.5v5.5h-1.5ZM50.2,57.43h-29.2v-12.59c0-1.41-1.11-2.55-2.5-2.62v-7h-4.5v7c-1.39.07-2.5,1.21-2.5,2.62v12.59H1.5v-27.73h48.7v27.73ZM38.03,14.51s.08,0,.12.01c.56.06,1,.53,1,1.11v12.57h-6.5v-12.57c0-.58.44-1.05,1-1.11.04-.01.09-.01.13-.01h4.25ZM35.15,13.01v-5.5h1.5v5.5h-1.5ZM50.2,28.2h-9.55v-12.57c0-1.4-1.11-2.55-2.5-2.62v-7h-4.5v7c-1.39.07-2.5,1.22-2.5,2.62v12.57H1.5V1.5h48.7v26.7ZM53.77,47.84h-2.07v-3.67h2.07v3.67ZM53.77,42.67h-2.07v-25.38h2.07v25.38ZM53.77,15.79h-2.07v-3.67h2.07v3.67ZM59.5,57.43h-4.23V1.5h4.23v55.93Z"/>
  </g>
</svg>