<?xml version="1.0" encoding="UTF-8"?>
<svg id="Lag_2" data-name="Lag 2" xmlns="http://www.w3.org/2000/svg" viewBox="0 0 61 61">
  <defs>
    <style>
      .cls-1 {
        fill: #8c6e47;
        stroke-width: 0px;
      }
    </style>
  </defs>
  <g id="Lag_1-2" data-name="Lag 1">
    <g>
      <g>
        <path class="cls-1" d="M44.67,37.65c-.05,0-.1,0-.16-.02-.4-.09-.65-.48-.56-.87.18-.81.54-1.59,1.06-2.25,1.23-1.57,2.36-3.24,3.37-4.98,1-1.74,1.89-3.55,2.63-5.41.54-1.36,1.58-2.43,2.92-3.01.5-.22.9-.6,1.16-1.09.55-1.07.18-2.42-.83-3.07-.45-.29-.96-.41-1.49-.37-1.33.12-2.64-.2-3.69-.91-2.78-1.86-5.66-3.65-8.58-5.34-2.92-1.69-5.92-3.29-8.92-4.76-1.14-.56-2.07-1.53-2.63-2.74-.22-.48-.59-.86-1.06-1.11-1.07-.56-2.42-.2-3.08.81-.3.47-.43,1-.37,1.55.16,1.45-.25,2.88-1.15,4.03-.92,1.17-1.79,2.41-2.58,3.68-.21.34-.67.45-1.01.23-.34-.21-.45-.67-.23-1.01.82-1.31,1.72-2.59,2.67-3.8.66-.85.97-1.9.85-2.97-.1-.87.11-1.77.59-2.51,1.06-1.64,3.25-2.22,4.98-1.32.76.4,1.35,1.01,1.71,1.79.42.91,1.11,1.63,1.95,2.05,3.02,1.49,6.05,3.11,9,4.81,2.95,1.7,5.86,3.52,8.67,5.39.77.52,1.75.75,2.75.67.85-.08,1.68.13,2.41.59,1.65,1.05,2.24,3.23,1.35,4.97-.4.79-1.07,1.42-1.87,1.77-.98.43-1.75,1.22-2.15,2.22-.77,1.92-1.68,3.8-2.72,5.59-1.04,1.8-2.21,3.53-3.48,5.15-.38.48-.65,1.05-.78,1.65-.07.34-.38.58-.71.58Z"/>
        <path class="cls-1" d="M6.2,37.76c-.34,0-.64-.23-.72-.58-.04-.2-.07-.4-.08-.61-.04-.88.22-1.76.74-2.47.64-.86.9-1.93.75-2.99-.29-2.04-.44-4.13-.44-6.2s.15-4.16.44-6.2c.15-1.07-.11-2.13-.75-2.99-.52-.71-.78-1.59-.74-2.47.1-1.95,1.7-3.55,3.66-3.63.86-.04,1.68.2,2.38.69.82.58,1.78.86,2.71.8,6.72-.45,13.68-.45,20.4,0,.93.07,1.89-.22,2.71-.8.7-.49,1.53-.74,2.38-.69,1.95.09,3.56,1.68,3.66,3.63.04.88-.22,1.76-.74,2.47-.64.86-.9,1.93-.75,2.99.29,2.04.44,4.13.44,6.2s-.15,4.16-.44,6.2c-.15,1.07.11,2.13.75,2.99.52.71.78,1.59.74,2.47,0,.16-.03.31-.05.46-.07.4-.45.67-.85.59-.4-.07-.66-.45-.59-.85.02-.09.03-.19.03-.29.03-.55-.13-1.08-.46-1.53-.86-1.18-1.23-2.62-1.02-4.07.28-1.97.42-3.99.42-6s-.14-4.02-.43-6c-.21-1.45.16-2.89,1.02-4.07.33-.44.48-.97.46-1.53-.06-1.2-1.05-2.19-2.26-2.24-.53-.02-1.04.12-1.47.43-1.09.77-2.39,1.14-3.65,1.06-6.66-.44-13.55-.44-20.21,0-1.27.08-2.56-.29-3.65-1.06-.43-.3-.95-.45-1.47-.43-1.21.05-2.2,1.04-2.26,2.24-.03.56.13,1.08.46,1.53.86,1.18,1.23,2.62,1.02,4.07-.28,1.97-.43,3.99-.43,6s.14,4.02.43,6c.21,1.45-.16,2.89-1.02,4.07-.33.44-.48.97-.46,1.53,0,.13.02.25.05.37.08.4-.17.78-.56.87-.05.01-.1.02-.15.02Z"/>
      </g>
      <path class="cls-1" d="M48.65,53.25H8.48c-4.67,0-8.48-3.8-8.48-8.48s3.8-8.48,8.48-8.48h22.02c.4,0,.73.33.73.73s-.33.73-.73.73H8.48c-3.87,0-7.01,3.15-7.01,7.01s3.15,7.01,7.01,7.01h40.17c1.73,0,3.14-1.41,3.14-3.14s-1.41-3.14-3.14-3.14H11.62c-.4,0-.73-.33-.73-.73s.33-.73.73-.73h37.03c2.54,0,4.6,2.07,4.6,4.6s-2.07,4.6-4.6,4.6Z"/>
      <path class="cls-1" d="M48.65,61H4.6c-2.54,0-4.6-2.07-4.6-4.6s2.07-4.6,4.6-4.6h13.66c.4,0,.73.33.73.73s-.33.73-.73.73H4.6c-1.73,0-3.14,1.41-3.14,3.14s1.41,3.14,3.14,3.14h44.05c6,0,10.89-4.88,10.89-10.88s-4.88-10.88-10.89-10.88h-18.15c-.4,0-.73-.33-.73-.73s.33-.73.73-.73h18.15c6.81,0,12.35,5.54,12.35,12.35s-5.54,12.35-12.35,12.35Z"/>
    </g>
  </g>
</svg>