<?xml version="1.0" encoding="UTF-8"?>
<svg id="Lag_2" data-name="Lag 2" xmlns="http://www.w3.org/2000/svg" viewBox="0 0 61 60">
  <defs>
    <style>
      .cls-1 {
        fill: #8c6e47;
        stroke-width: 0px;
      }
    </style>
  </defs>
  <g id="Lag_1-2" data-name="Lag 1">
    <path class="cls-1" d="M61,20.75v-1.5H20v-10.25h-2.54l.98-2.95,1.23.62.66-1.34-1.41-.71.79-2.38-1.42-.48-2.41,7.24h-1.13V0h-1.5v4.19l-2.72-2.72-1.06,1.06,3.78,3.78v2.69h-2.25v10.25H0v1.5h4.25v32.25H0v7h61v-7h-4.25V20.75h4.25ZM39.75,20.75h7v32.25h-7V20.75ZM31.25,20.75h7v32.25h-7V20.75ZM22.75,20.75h7v32.25h-7V20.75ZM21.25,20.75v32.25h-7V20.75h7ZM12.5,10.5h6v8.75h-6v-8.75ZM5.75,20.75h7v32.25h-7V20.75ZM59.5,54.5v4H1.5v-4h58ZM48.25,53V20.75h7v32.25h-7Z"/>
  </g>
</svg>