<svg id="Group_198" data-name="Group 198" xmlns="http://www.w3.org/2000/svg" xmlns:xlink="http://www.w3.org/1999/xlink" width="62.469" height="52.91" viewBox="0 0 62.469 52.91">
  <defs>
    <clipPath id="clip-path">
      <rect id="Rectangle_201" data-name="Rectangle 201" width="62.469" height="52.91" fill="#8c6e47"/>
    </clipPath>
  </defs>
  <path id="Path_55" data-name="Path 55" d="M45.852,51.11H24.24V15.49l-1.489.56V52.91H47.343V15.95l-1.491-.55ZM30.58,9.16l.6,1.8h1.571l-.6-1.8Zm7.611,0-.6,1.8h1.569l.6-1.8Z" transform="translate(-0.145)" fill="#8c6e47"/>
  <path id="Path_56" data-name="Path 56" d="M47.432,15.949l-1.49-.549-7.263-2.691.576-1.749.6-1.8,2.265-6.84L60.478,14.329,56.384,19.27ZM41.182.41l-.5,1.5L38.28,9.16l-.6,1.8-.656,1.98-.089.28-.129.389h.01l1.4.531,6.131,2.269,1.59.591,1.49.55,9.429,3.5L62.7,13.99,44.242,1.909l-2.3-1.5Z" transform="translate(-0.235)" fill="#8c6e47"/>
  <path id="Path_57" data-name="Path 57" d="M9.856,14.33,28.218,2.32l2.265,6.84.6,1.8.576,1.75-7.512,2.78-1.49.56-8.705,3.22ZM29.013,0l-.626.41-2.3,1.5L7.63,13.991l5.842,7.059,9.181-3.41,1.49-.55,1.838-.68,6.2-2.3,1.341-.5-.249-.75-.625-1.9-.6-1.8-2.4-7.25-.5-1.5Z" transform="translate(-0.049)" fill="#8c6e47"/>
  <rect id="Rectangle_197" data-name="Rectangle 197" width="22.853" height="1.5" transform="translate(23.598 28.41)" fill="#8c6e47"/>
  <rect id="Rectangle_198" data-name="Rectangle 198" width="1.489" height="23" transform="translate(31.796 29.16)" fill="#8c6e47"/>
  <path id="Path_66" data-name="Path 66" d="M0,0,1.493,0,1.475,7.6l-1.493,0Z" transform="translate(31.856 13.455) rotate(-23.199)" fill="#8c6e47"/>
  <path id="Path_67" data-name="Path 67" d="M0,0,16.754-.03l0,1.491L0,1.491Z" transform="translate(31.832 28.937) rotate(-72.664)" fill="#8c6e47"/>
  <path id="Path_58" data-name="Path 58" d="M28.505.41l-2.3,1.5H44.175l-2.3-1.5Z" transform="translate(-0.167)" fill="#8c6e47"/>
  <g id="Group_197" data-name="Group 197" transform="translate(0 0)">
    <g id="Group_196" data-name="Group 196" clip-path="url(#clip-path)">
      <path id="Path_59" data-name="Path 59" d="M16.216,33.41A5.245,5.245,0,0,0,11,38.66v9a5.217,5.217,0,1,0,10.433,0v-9a5.245,5.245,0,0,0-5.216-5.25m3.726,14.25a3.726,3.726,0,1,1-7.452,0v-9a3.726,3.726,0,1,1,7.452,0Z" transform="translate(-0.07 0)" fill="#8c6e47"/>
      <path id="Path_60" data-name="Path 60" d="M19.943,41.99A5.217,5.217,0,0,0,11,45.66v2a5.255,5.255,0,0,0,1.49,3.67V45.66a3.726,3.726,0,1,1,7.452,0v5.67a5.255,5.255,0,0,0,1.49-3.67v-2a5.255,5.255,0,0,0-1.49-3.67" transform="translate(-0.07 0)" fill="#8c6e47"/>
      <path id="Path_61" data-name="Path 61" d="M5.216,33.41A5.245,5.245,0,0,0,0,38.66v9a5.241,5.241,0,0,0,5.216,5.25,5.241,5.241,0,0,0,5.216-5.25v-9a5.245,5.245,0,0,0-5.216-5.25M8.943,47.66a3.726,3.726,0,1,1-7.452,0v-9a3.726,3.726,0,1,1,7.452,0Z" transform="translate(0 0)" fill="#8c6e47"/>
      <path id="Path_62" data-name="Path 62" d="M8.943,41.99a5.184,5.184,0,0,0-7.452,0A5.255,5.255,0,0,0,0,45.66v2a5.255,5.255,0,0,0,1.49,3.67V45.66a3.726,3.726,0,1,1,7.452,0v5.67a5.255,5.255,0,0,0,1.49-3.67v-2a5.255,5.255,0,0,0-1.49-3.67" transform="translate(0 0)" fill="#8c6e47"/>
    </g>
  </g>
</svg>
