<svg xmlns="http://www.w3.org/2000/svg" xmlns:xlink="http://www.w3.org/1999/xlink" width="61.11" height="61.75" viewBox="0 0 61.11 61.75">
  <defs>
    <clipPath id="clip-path">
      <rect id="Rectangle_193" data-name="Rectangle 193" width="49.184" height="61.75" fill="#8c6e47"/>
    </clipPath>
  </defs>
  <g id="Group_348" data-name="Group 348" transform="translate(-54.517)">
    <g id="Group_192" data-name="Group 192" transform="translate(60.517)">
      <g id="Group_191" data-name="Group 191" clip-path="url(#clip-path)">
        <path id="Path_45" data-name="Path 45" d="M26.828,48.68V59.84a.4.4,0,0,1-.407.41h1.848a1.852,1.852,0,0,0,.05-.41V49.98a3.208,3.208,0,0,1-1.49-1.3m1.441-.93a1.9,1.9,0,0,0-1.848-1.5H1.9A1.91,1.91,0,0,0,0,48.16V59.84a1.91,1.91,0,0,0,1.9,1.91H26.42a1.9,1.9,0,0,0,1.848-1.5,1.852,1.852,0,0,0,.05-.41V48.16a1.852,1.852,0,0,0-.05-.41M26.828,59.84a.4.4,0,0,1-.407.41H1.9a.4.4,0,0,1-.407-.41V48.16a.4.4,0,0,1,.407-.41H26.44a.407.407,0,0,1,.388.41Zm1.441-12.09H26.44a.407.407,0,0,1,.388.41V59.84a.4.4,0,0,1-.407.41h1.848a1.852,1.852,0,0,0,.05-.41V48.16a1.852,1.852,0,0,0-.05-.41m-1.441.93V59.84a.4.4,0,0,1-.407.41h1.848a1.852,1.852,0,0,0,.05-.41V49.98a3.208,3.208,0,0,1-1.49-1.3" fill="#8c6e47"/>
        <path id="Path_46" data-name="Path 46" d="M4,47.75H15.427V24.25H4Zm1.49-22h8.446v20.5H5.49Z" transform="translate(-0.026)" fill="#8c6e47"/>
        <path id="Path_47" data-name="Path 47" d="M31,28.25v10.5h1.49v-9h5.465v9h1.49V28.25Z" transform="translate(-0.198)" fill="#8c6e47"/>
        <path id="Path_48" data-name="Path 48" d="M26.987,48.68v2.16a4.3,4.3,0,0,0,1.49.72V49.98a3.208,3.208,0,0,1-1.49-1.3M40.6,37.25H29.769A4.786,4.786,0,0,0,25,42.05v4.9a4.278,4.278,0,0,0,.07.8H26.6a2.639,2.639,0,0,1-.109-.8v-4.9a3.293,3.293,0,0,1,3.279-3.3H40.6a3.293,3.293,0,0,1,3.279,3.3v4.9a3.053,3.053,0,0,1-.129.91.4.4,0,0,1,.129.3v2.26a4.742,4.742,0,0,0,1.431-2.72,4.586,4.586,0,0,0,.06-.75v-4.9a4.786,4.786,0,0,0-4.769-4.8M26.987,48.68v2.16a4.3,4.3,0,0,0,1.49.72V49.98a3.208,3.208,0,0,1-1.49-1.3" transform="translate(-0.16)" fill="#8c6e47"/>
        <path id="Path_49" data-name="Path 49" d="M17,54.75h1.49v-1.5H17Zm9.529-8.5H18.9a1.9,1.9,0,0,0-1.848,1.5H28.377a1.9,1.9,0,0,0-1.848-1.5m18.73,1.45a1.882,1.882,0,0,0-1.431-1.4v.65a3.053,3.053,0,0,1-.129.91.4.4,0,0,1,.129.3V59.84a.4.4,0,0,1-.407.41H17.05a1.9,1.9,0,0,0,1.848,1.5H43.42a1.91,1.91,0,0,0,1.9-1.91V48.16a1.77,1.77,0,0,0-.06-.46" transform="translate(-0.109)" fill="#8c6e47"/>
        <rect id="Rectangle_187" data-name="Rectangle 187" width="26.828" height="1.5" transform="translate(0.745 53.25)" fill="#8c6e47"/>
        <rect id="Rectangle_188" data-name="Rectangle 188" width="10.681" height="1.5" transform="translate(38.503 30.25)" fill="#8c6e47"/>
        <rect id="Rectangle_189" data-name="Rectangle 189" width="1.49" height="5.75" transform="translate(47.693 30.25)" fill="#8c6e47"/>
        <rect id="Rectangle_190" data-name="Rectangle 190" width="1.49" height="25" transform="translate(8.943)" fill="#8c6e47"/>
        <path id="Path_64" data-name="Path 64" d="M0,0H1.491L1.478,19.1H-.013Z" transform="translate(3.978 6.079) rotate(-6.009)" fill="#8c6e47"/>
        <path id="Path_65" data-name="Path 65" d="M0,0,16.486-.025l0,1.491L0,1.491Z" transform="matrix(0.242, -0.97, 0.97, 0.242, 11.95, 24.82)" fill="#8c6e47"/>
      </g>
    </g>
    <rect id="Rectangle_234" data-name="Rectangle 234" width="61.11" height="61.75" transform="translate(54.517)" fill="none"/>
  </g>
</svg>
